<?xml version="1.0" encoding="utf-8"?>
<!-- Generator: Adobe Illustrator 25.3.1, SVG Export Plug-In . SVG Version: 6.00 Build 0)  -->
<svg version="1.1" id="Layer_1" xmlns="http://www.w3.org/2000/svg" xmlns:xlink="http://www.w3.org/1999/xlink" x="0px" y="0px"
	 viewBox="0 0 56.6 56.9" style="enable-background:new 0 0 56.6 56.9;" xml:space="preserve">
<style type="text/css">
	.st0{fill:#02E0B1;}
</style>
<path class="st0" d="M49.3,23.7c0.4,1.5,0.6,3.2,0.6,4.8c0,11.9-9.7,21.6-21.6,21.6S6.7,40.4,6.7,28.5S16.4,6.9,28.3,6.9
	c4.3,0,8.2,1.2,11.6,3.4l3.9-3.9c-4.4-3.1-9.7-4.9-15.4-4.9c-14.9,0-27,12.1-27,27s12.1,27,27,27s27-12.1,27-27
	c0-3.2-0.6-6.3-1.6-9.2L49.3,23.7z"/>
</svg>
